<svg xmlns="http://www.w3.org/2000/svg" viewBox="0 0 860 160" width="860" height="160">
  <defs>
    <linearGradient id="bg" x1="0%" y1="0%" x2="100%" y2="100%">
      <stop offset="0%" style="stop-color:#0f172a"/>
      <stop offset="100%" style="stop-color:#1e293b"/>
    </linearGradient>
    <linearGradient id="accent" x1="0%" y1="0%" x2="100%" y2="0%">
      <stop offset="0%" style="stop-color:#22c55e"/>
      <stop offset="100%" style="stop-color:#16a34a"/>
    </linearGradient>
  </defs>

  <!-- Background -->
  <rect width="860" height="160" rx="12" fill="url(#bg)"/>

  <!-- Green accent bar -->
  <rect x="0" y="0" width="5" height="160" rx="3" fill="url(#accent)"/>

  <!-- Receipt icon -->
  <g transform="translate(36, 38)">
    <rect x="0" y="0" width="44" height="56" rx="4" fill="none" stroke="#22c55e" stroke-width="2"/>
    <rect x="6" y="14" width="32" height="2.5" rx="1.25" fill="#22c55e" opacity="0.7"/>
    <rect x="6" y="22" width="24" height="2.5" rx="1.25" fill="#22c55e" opacity="0.5"/>
    <rect x="6" y="30" width="28" height="2.5" rx="1.25" fill="#22c55e" opacity="0.5"/>
    <rect x="6" y="38" width="20" height="2.5" rx="1.25" fill="#22c55e" opacity="0.5"/>
    <!-- Tick -->
    <circle cx="34" cy="44" r="9" fill="#22c55e"/>
    <polyline points="29,44 33,48 39,40" fill="none" stroke="#0f172a" stroke-width="2.2" stroke-linecap="round" stroke-linejoin="round"/>
  </g>

  <!-- Title -->
  <text x="100" y="72" font-family="'Segoe UI', system-ui, sans-serif" font-size="32" font-weight="700" fill="#f8fafc" letter-spacing="-0.5">FDM Expenses</text>

  <!-- Subtitle -->
  <text x="101" y="100" font-family="'Segoe UI', system-ui, sans-serif" font-size="15" fill="#94a3b8">Full-stack expense management · Submit · Review · Reimburse</text>

  <!-- Divider -->
  <line x1="100" y1="114" x2="760" y2="114" stroke="#334155" stroke-width="1"/>

  <!-- Badges row -->
  <!-- React -->
  <rect x="100" y="125" width="82" height="22" rx="11" fill="#1e3a5f"/>
  <text x="141" y="140" font-family="'Segoe UI', system-ui, sans-serif" font-size="11" fill="#60a5fa" text-anchor="middle">React 18 + TS</text>

  <!-- Node -->
  <rect x="190" y="125" width="100" height="22" rx="11" fill="#1a3d2b"/>
  <text x="240" y="140" font-family="'Segoe UI', system-ui, sans-serif" font-size="11" fill="#22c55e" text-anchor="middle">Node + Express</text>

  <!-- Flat-file -->
  <rect x="298" y="125" width="98" height="22" rx="11" fill="#2d2a1e"/>
  <text x="347" y="140" font-family="'Segoe UI', system-ui, sans-serif" font-size="11" fill="#fbbf24" text-anchor="middle">Flat-file JSON</text>

  <!-- JWT -->
  <rect x="404" y="125" width="68" height="22" rx="11" fill="#2d1e3a"/>
  <text x="438" y="140" font-family="'Segoe UI', system-ui, sans-serif" font-size="11" fill="#c084fc" text-anchor="middle">JWT Auth</text>

  <!-- TypeScript -->
  <rect x="480" y="125" width="82" height="22" rx="11" fill="#1e2d4a"/>
  <text x="521" y="140" font-family="'Segoe UI', system-ui, sans-serif" font-size="11" fill="#38bdf8" text-anchor="middle">TypeScript</text>
</svg>
